<svg width="24" height="25" viewBox="0 0 24 25" fill="none" xmlns="http://www.w3.org/2000/svg">
<path d="M5.58843 15.9519C5.33509 15.6574 5.18582 15.2819 5.16527 14.8873V9.96629C5.18576 9.57163 5.33504 9.19605 5.58843 8.9016L5.92309 8.55339C6.03532 8.43638 6.09834 8.27785 6.09834 8.11255C6.09834 7.94725 6.03532 7.7887 5.92309 7.67171L2.37328 3.97755C2.26072 3.8609 2.10832 3.79541 1.94945 3.79541C1.79057 3.79541 1.63818 3.8609 1.52561 3.97755L0.174375 5.38355C0.0626694 5.50084 0 5.65927 0 5.82439C0 5.98952 0.0626694 6.14795 0.174375 6.26524L2.70794 8.90149C2.96178 9.19568 3.11125 9.57138 3.13155 9.96619V14.8872C3.11131 15.2818 2.96181 15.6572 2.70794 15.9511L0.174375 18.5884C0.0626694 18.7057 0 18.8641 0 19.0292C0 19.1943 0.0626694 19.3527 0.174375 19.4701L1.52561 20.876C1.63819 20.9926 1.79058 21.0581 1.94945 21.0581C2.10831 21.0581 2.26071 20.9926 2.37328 20.876L5.92309 17.1816C6.03531 17.0645 6.09833 16.9061 6.09833 16.7408C6.09833 16.5754 6.03531 16.417 5.92309 16.3L5.58843 15.9519Z" fill="white"/>
<path d="M15.3436 19.0547C15.0607 19.3183 14.6999 19.4738 14.3206 19.4956H9.59266C9.21314 19.4738 8.85204 19.3184 8.56876 19.0547L8.2349 18.7056C8.12193 18.5893 7.9695 18.5242 7.81066 18.5242C7.65182 18.5242 7.49939 18.5893 7.38643 18.7056L3.83708 22.3998C3.72502 22.5171 3.66211 22.6758 3.66211 22.8411C3.66211 23.0065 3.72502 23.1652 3.83708 23.2824L5.18831 24.6885C5.30113 24.8047 5.45348 24.8699 5.61226 24.8699C5.77103 24.8699 5.92338 24.8047 6.03621 24.6885L8.56921 22.0509C8.85242 21.7874 9.2134 21.632 9.59276 21.6102H14.3221C14.7013 21.6319 15.0621 21.7873 15.3451 22.0509L17.8792 24.6885C17.992 24.8047 18.1442 24.8699 18.303 24.8699C18.4616 24.8699 18.614 24.8047 18.7266 24.6885L20.0779 23.2824C20.19 23.1652 20.2529 23.0065 20.2529 22.8411C20.2529 22.6758 20.19 22.5171 20.0779 22.3998L16.5259 18.7054C16.4133 18.5891 16.261 18.5239 16.1024 18.5239C15.9437 18.5239 15.7914 18.5891 15.6787 18.7054L15.3436 19.0547Z" fill="white"/>
<path d="M18.41 8.93898C18.664 9.23374 18.8138 9.60989 18.8344 10.0052V14.9243C18.8137 15.3194 18.6639 15.6953 18.41 15.9897L18.0753 16.3387C17.9634 16.4559 17.9006 16.6143 17.9006 16.7796C17.9006 16.9447 17.9634 17.1032 18.0753 17.2204L21.6261 20.9141C21.7387 21.0307 21.8911 21.0961 22.0499 21.0961C22.2087 21.0961 22.3611 21.0307 22.4737 20.9141L23.8249 19.5073C23.937 19.3903 24 19.2317 24 19.0664C24 18.9012 23.937 18.7426 23.8249 18.6255L21.2919 15.9892C21.0379 15.6948 20.8881 15.3189 20.8673 14.9238L20.868 10.0047C20.8884 9.60944 21.0379 9.23329 21.2919 8.93851L23.8249 6.30227C23.937 6.1854 24 6.02702 24 5.86189C24 5.69677 23.937 5.53838 23.8249 5.42152L22.4737 4.0147C22.418 3.95679 22.352 3.91085 22.2793 3.87951C22.2065 3.84817 22.1286 3.83203 22.0499 3.83203C21.9712 3.83203 21.8933 3.84817 21.8206 3.87951C21.7478 3.91085 21.6818 3.95679 21.6261 4.0147L18.0753 7.70827C17.9634 7.82546 17.9006 7.98396 17.9006 8.14917C17.9006 8.31437 17.9634 8.47286 18.0753 8.59006L18.41 8.93898Z" fill="white"/>
<path d="M8.65457 5.8375C8.93741 5.57354 9.29841 5.41799 9.67779 5.3966H14.4061C14.7854 5.41836 15.1462 5.57387 15.4292 5.8375L15.7647 6.18642C15.8202 6.24431 15.8863 6.29023 15.9589 6.32157C16.0316 6.3529 16.1095 6.36904 16.1881 6.36904C16.2668 6.36904 16.3447 6.3529 16.4173 6.32157C16.49 6.29023 16.556 6.24431 16.6117 6.18642L20.1619 2.49203C20.2739 2.37475 20.3368 2.21609 20.3368 2.05072C20.3368 1.88536 20.2739 1.72671 20.1619 1.60941L18.8107 0.205053C18.6982 0.0881359 18.5458 0.0224609 18.3868 0.0224609C18.2278 0.0224609 18.0754 0.0881359 17.9629 0.205053L15.4294 2.84131C15.1463 3.10493 14.7855 3.26043 14.4062 3.2822H9.67779C9.29841 3.26081 8.93741 3.10526 8.65457 2.84131L6.121 0.205053C6.00818 0.0888475 5.85586 0.0236624 5.6971 0.0236624C5.53836 0.0236624 5.38603 0.0888475 5.27321 0.205053L3.92198 1.61105C3.80996 1.72832 3.74707 1.88695 3.74707 2.0523C3.74707 2.21765 3.80996 2.37628 3.92198 2.49355L7.47145 6.1863C7.5839 6.30322 7.73637 6.36889 7.89534 6.36889C8.05431 6.36889 8.20679 6.30322 8.31924 6.1863L8.65457 5.8375Z" fill="white"/>
</svg>
